<svg width="98" height="28" viewBox="0 0 98 28" xmlns="http://www.w3.org/2000/svg" xmlns:xlink="http://www.w3.org/1999/xlink"><title>5F3A064E-27E1-46BC-B188-15EBF1F16461</title><defs><path id="a" d="M28 28H0V0h28z"/></defs><g fill="none" fill-rule="evenodd"><g><mask id="b" fill="#fff"><use xlink:href="#a"/></mask><path d="M22.5 11L19 14.5l4 4V23H5V5h17l5-4.446V0H1C.356 0 0 .36 0 1.003v25.83C0 27.478.523 28 1.166 28h25.667c.645 0 1.167-.523 1.167-1.166V16.5L22.5 11z" fill="#000" mask="url(#b)"/></g><path d="M61 1.495V0h-6.494c-.28 0-.506.255-.506.572v9.857c0 .315.226.571.506.571H61V9.506h-5.215V5.977h4.857v-1.48h-4.857V1.496H61zM49.821 4.967c-.451.38-1.089.61-1.913.61h-1.09V1.424h1.235c.873 0 1.499.22 1.877.575.378.356.568.824.568 1.403 0 .663-.226 1.185-.677 1.565m2.235-2.96c.173.407.261.849.261 1.323 0 .562-.094 1.066-.285 1.515-.189.451-.453.835-.792 1.154-.34.318-.755.564-1.245.74A4.783 4.783 0 0 1 48.374 7h-1.541V11H45V.572c0-.317.23-.572.514-.572h2.8c.64 0 1.21.083 1.71.25.5.165.92.399 1.26.697.339.299.596.652.772 1.06zM69.303 0H71v10.434c0 .312-.228.566-.51.566h-1.643L64.79 2.615V11H63V.566c0-.313.228-.566.51-.566h1.729l4.064 8.4V0zM38 9.404c-1.71 0-2.979-1.748-2.979-3.904 0-2.157 1.268-3.905 2.98-3.905 1.71 0 2.979 1.748 2.979 3.905 0 2.156-1.269 3.904-2.98 3.904M38 0c-2.834 0-5 2.462-5 5.5s2.166 5.5 5 5.5 5-2.462 5-5.5S40.834 0 38 0m10.182 19.444l1.4 4.116h-2.801l1.401-4.116zM49.12 17l3.743 11h-1.77l-1.026-3.017h-3.77L45.27 28H43.5l3.743-11h1.877zm7.714 9.505h4.82V28h-6.14c-.283 0-.514-.257-.514-.572V17h1.834v9.505zm8.096 0H70V28h-6.457c-.3 0-.543-.257-.543-.572V17h1.93v9.505zM79 18.495h-5.214v3.003h4.857v1.48h-4.857v3.528H79V28h-6.494c-.279 0-.506-.257-.506-.571v-9.857c0-.316.227-.572.506-.572H79v1.495zM97.483 17L94 23.191V28h-1.9v-4.809L88.5 17h1.9l2.6 4.461L95.5 17h1.983zm-14.662 1.348h1.21c.866 0 1.487.207 1.863.544.375.336.562.778.562 1.325 0 .028-.002.052-.003.077-.019.591-.238 1.06-.668 1.404a2.172 2.172 0 0 1-.167.122c-.367.243-.844.395-1.42.437h-1.377v-3.91zM87.18 28l-2.356-4.395H82.82V28H81V17.567c0-.312.23-.567.512-.567h2.779c.635 0 1.2.079 1.696.236a3.6 3.6 0 0 1 1.249.66c.338.282.592.617.765 1.003.174.386.261.803.261 1.251 0 .53-.095 1.008-.281 1.435a3.143 3.143 0 0 1-1.576 1.604L89 28h-1.82zm-45.454-5.81c.283 0 .512.243.512.543v4.035c-.526.432-1.36.764-2.024.974A6.227 6.227 0 0 1 38.45 28C34.92 28 33 25.539 33 22.5c0-3.038 2.44-5.5 5.45-5.5 1.19 0 2.413.387 3.307 1.038v1.586h-.293c-.735-.753-1.606-1.222-2.737-1.222-2.244 0-3.874 1.835-3.874 4.098 0 2.17 1.498 3.94 3.597 4.085.093.006.183.014.277.014.584 0 1.21-.126 1.713-.35v-2.667h-2.395V22.19h3.682z" fill="#000"/></g></svg>